<svg width="24" height="24" viewBox="0 0 24 24" fill="none" xmlns="http://www.w3.org/2000/svg">
<path d="M12.884 2.532C12.538 1.878 11.462 1.878 11.116 2.532L2.116 19.532C2.03499 19.6844 1.99482 19.8551 1.99942 20.0276C2.00403 20.2001 2.05323 20.3685 2.14226 20.5164C2.23128 20.6642 2.35708 20.7864 2.5074 20.8712C2.65772 20.956 2.82744 21.0003 3 21H21C21.1725 21.0004 21.3421 20.956 21.4923 20.8713C21.6425 20.7866 21.7682 20.6644 21.8571 20.5167C21.9461 20.3689 21.9952 20.2006 21.9997 20.0282C22.0043 19.8559 21.964 19.6852 21.883 19.533L12.884 2.532ZM13 18H11V16H13V18ZM11 14V9H13L13.001 14H11Z" fill="#FF6E6E"/>
</svg>
