<svg width="18" height="18" viewBox="0 0 18 18" fill="none" xmlns="http://www.w3.org/2000/svg">
<path d="M11.8125 9C11.8125 9.74592 11.5162 10.4613 10.9887 10.9887C10.4613 11.5162 9.74592 11.8125 9 11.8125C8.25408 11.8125 7.53871 11.5162 7.01126 10.9887C6.48382 10.4613 6.1875 9.74592 6.1875 9C6.1875 8.25408 6.48382 7.53871 7.01126 7.01126C7.53871 6.48382 8.25408 6.1875 9 6.1875C9.74592 6.1875 10.4613 6.48382 10.9887 7.01126C11.5162 7.53871 11.8125 8.25408 11.8125 9Z" fill="#2D2D2D"/>
<path d="M0 9C0 9 3.375 2.8125 9 2.8125C14.625 2.8125 18 9 18 9C18 9 14.625 15.1875 9 15.1875C3.375 15.1875 0 9 0 9ZM9 12.9375C10.0443 12.9375 11.0458 12.5227 11.7842 11.7842C12.5227 11.0458 12.9375 10.0443 12.9375 9C12.9375 7.95571 12.5227 6.95419 11.7842 6.21577C11.0458 5.47734 10.0443 5.0625 9 5.0625C7.95571 5.0625 6.95419 5.47734 6.21577 6.21577C5.47734 6.95419 5.0625 7.95571 5.0625 9C5.0625 10.0443 5.47734 11.0458 6.21577 11.7842C6.95419 12.5227 7.95571 12.9375 9 12.9375Z" fill="#2D2D2D"/>
</svg>
