<svg width="20" height="20" viewBox="0 0 20 20" fill="none" xmlns="http://www.w3.org/2000/svg">
<g clip-path="url(#clip0)">
<path d="M19.1908 10.1871C19.1908 9.36767 19.1255 8.76973 18.9841 8.14966H9.79125V11.848H15.1873C15.0785 12.7671 14.4911 14.1512 13.1855 15.0813L13.1672 15.2051L16.0738 17.4969L16.2752 17.5174C18.1246 15.7789 19.1908 13.221 19.1908 10.1871Z" fill="#4285F4"/>
<path d="M9.79125 19.9313C12.4349 19.9313 14.6542 19.0454 16.2752 17.5174L13.1855 15.0813C12.3587 15.6682 11.249 16.0779 9.79125 16.0779C7.20203 16.0779 5.00445 14.3395 4.22107 11.9366L4.10625 11.9466L1.0839 14.3273L1.04437 14.4391C2.65447 17.6945 5.96175 19.9313 9.79125 19.9313Z" fill="#34A853"/>
<path d="M4.22107 11.9367C4.01437 11.3166 3.89475 10.6522 3.89475 9.96571C3.89475 9.27915 4.01437 8.6148 4.2102 7.99472L4.20472 7.86266L1.1445 5.44373L1.04437 5.4922C0.380775 6.84312 0 8.36014 0 9.96571C0 11.5713 0.380775 13.0882 1.04437 14.4391L4.22107 11.9367Z" fill="#FBBC05"/>
<path d="M9.79125 3.85336C11.6298 3.85336 12.87 4.66168 13.5772 5.33718L16.3405 2.59107C14.6434 0.985496 12.4348 0 9.79125 0C5.96175 0 2.65447 2.23672 1.04437 5.49214L4.2102 7.99466C5.00445 5.59183 7.20202 3.85336 9.79125 3.85336Z" fill="#EB4335"/>
</g>
<defs>
<clipPath id="clip0">
<rect width="19.2" height="20" fill="white"/>
</clipPath>
</defs>
</svg>
