<svg width="24" height="23" viewBox="0 0 24 23" fill="none" xmlns="http://www.w3.org/2000/svg">
<path fill-rule="evenodd" clip-rule="evenodd" d="M16 8.57143C16 9.58177 15.5786 10.5507 14.8284 11.2652C14.0783 11.9796 13.0609 12.3809 12 12.3809C10.9391 12.3809 9.92172 11.9796 9.17157 11.2652C8.42143 10.5507 8 9.58177 8 8.57143C8 7.56108 8.42143 6.59211 9.17157 5.87769C9.92172 5.16326 10.9391 4.7619 12 4.7619C13.0609 4.7619 14.0783 5.16326 14.8284 5.87769C15.5786 6.59211 16 7.56108 16 8.57143ZM14 8.57143C14 9.0766 13.7893 9.56108 13.4142 9.9183C13.0391 10.2755 12.5304 10.4762 12 10.4762C11.4696 10.4762 10.9609 10.2755 10.5858 9.9183C10.2107 9.56108 10 9.0766 10 8.57143C10 8.06625 10.2107 7.58177 10.5858 7.22456C10.9609 6.86734 11.4696 6.66666 12 6.66666C12.5304 6.66666 13.0391 6.86734 13.4142 7.22456C13.7893 7.58177 14 8.06625 14 8.57143Z" fill="black"/>
<path fill-rule="evenodd" clip-rule="evenodd" d="M12 0.952393C5.925 0.952393 1 5.64287 1 11.4286C1 17.2143 5.925 21.9048 12 21.9048C18.075 21.9048 23 17.2143 23 11.4286C23 5.64287 18.075 0.952393 12 0.952393ZM3 11.4286C3 13.4191 3.713 15.2514 4.908 16.7067C5.74723 15.6571 6.8299 14.8064 8.07143 14.2213C9.31297 13.6361 10.6797 13.3322 12.065 13.3333C13.4323 13.3321 14.7819 13.6281 16.0109 14.1989C17.2399 14.7696 18.316 15.5999 19.157 16.6267C20.0234 15.5444 20.6068 14.2812 20.8589 12.9415C21.111 11.6019 21.0244 10.2243 20.6065 8.92285C20.1886 7.62138 19.4512 6.43339 18.4555 5.45719C17.4598 4.48099 16.2343 3.74464 14.8804 3.30907C13.5265 2.8735 12.0832 2.75122 10.6699 2.95237C9.25652 3.15351 7.91379 3.67229 6.75277 4.46578C5.59175 5.25926 4.64581 6.30465 3.99323 7.51544C3.34065 8.72622 3.00018 10.0676 3 11.4286ZM12 20C9.93395 20.003 7.93027 19.3261 6.328 18.0838C6.97293 17.2045 7.83134 16.4866 8.83019 15.9911C9.82905 15.4957 10.9388 15.2373 12.065 15.2381C13.1772 15.2373 14.2735 15.4891 15.2629 15.9728C16.2524 16.4565 17.1064 17.158 17.754 18.0191C16.1393 19.3016 14.1026 20.0028 12 20Z" fill="black"/>
</svg>
