<svg width="24" height="23" viewBox="0 0 24 23" fill="none" xmlns="http://www.w3.org/2000/svg">
<path d="M4.05101 8.49524C4.07113 8.25658 4.18489 8.03388 4.36965 7.87151C4.55441 7.70914 4.79661 7.619 5.04801 7.61905H18.952C19.2034 7.619 19.4456 7.70914 19.6304 7.87151C19.8151 8.03388 19.9289 8.25658 19.949 8.49524L20.826 18.8952C20.8481 19.1573 20.813 19.4209 20.7228 19.6695C20.6327 19.918 20.4895 20.146 20.3023 20.3393C20.1151 20.5325 19.8879 20.6868 19.635 20.7923C19.3822 20.8978 19.1091 20.9523 18.833 20.9524H5.16701C4.89093 20.9523 4.61786 20.8978 4.36499 20.7923C4.11212 20.6868 3.88492 20.5325 3.69771 20.3393C3.51049 20.146 3.36731 19.918 3.27718 19.6695C3.18705 19.4209 3.15193 19.1573 3.17401 18.8952L4.05001 8.49524H4.05101Z" stroke="black" stroke-width="2" stroke-linecap="round" stroke-linejoin="round"/>
<path d="M16 10.4762V5.71428C16 4.70393 15.5786 3.73496 14.8284 3.02054C14.0783 2.30611 13.0609 1.90475 12 1.90475C10.9391 1.90475 9.92172 2.30611 9.17157 3.02054C8.42143 3.73496 8 4.70393 8 5.71428V10.4762" stroke="black" stroke-width="2" stroke-linecap="round" stroke-linejoin="round"/>
</svg>
