<svg width="24" height="24" viewBox="0 0 24 24" fill="none" xmlns="http://www.w3.org/2000/svg">
<path d="M12 1.33337C9.89033 1.33337 7.82804 1.95896 6.07392 3.13103C4.31979 4.3031 2.95262 5.96901 2.14528 7.91808C1.33795 9.86716 1.12671 12.0119 1.53829 14.081C1.94987 16.1501 2.96577 18.0508 4.45753 19.5425C5.94929 21.0343 7.84991 22.0502 9.91904 22.4618C11.9882 22.8733 14.1329 22.6621 16.082 21.8548C18.031 21.0474 19.6969 19.6802 20.869 17.9261C22.0411 16.172 22.6667 14.1097 22.6667 12C22.6667 9.17106 21.5429 6.45796 19.5425 4.45757C17.5421 2.45718 14.829 1.33337 12 1.33337ZM18.9667 8.42004L10.2067 17.1734L5.03333 12C4.85652 11.8232 4.75719 11.5834 4.75719 11.3334C4.75719 11.0833 4.85652 10.8435 5.03333 10.6667C5.21014 10.4899 5.44995 10.3906 5.7 10.3906C5.95005 10.3906 6.18986 10.4899 6.36667 10.6667L10.22 14.52L17.6467 7.10004C17.7342 7.01249 17.8381 6.94305 17.9525 6.89567C18.0669 6.84828 18.1895 6.8239 18.3133 6.8239C18.4371 6.8239 18.5597 6.84828 18.6741 6.89567C18.7885 6.94305 18.8924 7.01249 18.98 7.10004C19.0675 7.18759 19.137 7.29152 19.1844 7.40591C19.2318 7.5203 19.2561 7.6429 19.2561 7.76671C19.2561 7.89052 19.2318 8.01312 19.1844 8.1275C19.137 8.24189 19.0675 8.34583 18.98 8.43337L18.9667 8.42004Z" fill="#52E266"/>
</svg>
