<svg width="25" height="20" viewBox="0 0 25 20" fill="none" xmlns="http://www.w3.org/2000/svg">
<g clip-path="url(#clip0)">
<path d="M24.4231 2.43536C23.5244 2.83507 22.5587 3.10522 21.5452 3.22675C22.5798 2.60474 23.3742 1.61976 23.7483 0.446173C22.7647 1.03161 21.6887 1.44409 20.5665 1.66579C19.6525 0.689044 18.3503 0.0786133 16.9091 0.0786133C14.1418 0.0786133 11.8982 2.32895 11.8982 5.10445C11.8982 5.49842 11.9426 5.88196 12.028 6.24991C7.86366 6.04024 4.17158 4.03938 1.70017 0.998613C1.26895 1.74091 1.02186 2.60436 1.02186 3.52531C1.02186 5.26904 1.90653 6.80732 3.25094 7.70866C2.45523 7.68367 1.67703 7.4681 0.981312 7.07995C0.981025 7.10101 0.981025 7.12206 0.981025 7.14321C0.981025 9.57833 2.70819 11.6097 5.00034 12.0714C4.26248 12.2727 3.48852 12.3022 2.73758 12.1576C3.37515 14.1543 5.22568 15.6073 7.41822 15.648C5.70336 16.9959 3.54278 17.7995 1.1953 17.7995C0.790793 17.7995 0.392009 17.7756 0 17.7292C2.21744 19.1553 4.85122 19.9873 7.68087 19.9873C16.8974 19.9873 21.9373 12.3289 21.9373 5.68732C21.9373 5.46933 21.9325 5.25259 21.9228 5.03708C22.9037 4.32578 23.7504 3.44475 24.4231 2.43536Z" fill="#55ACEE"/>
</g>
<defs>
<clipPath id="clip0">
<rect width="24.4231" height="20" fill="white"/>
</clipPath>
</defs>
</svg>
