<svg width="114" height="80" viewBox="0 0 114 80" fill="none" xmlns="http://www.w3.org/2000/svg">
<g clip-path="url(#clip0)">
<path d="M111.091 12.4778C110.439 10.066 109.168 7.86731 107.404 6.10057C105.641 4.33383 103.445 3.06072 101.037 2.408C92.2218 0 56.7422 0 56.7422 0C56.7422 0 21.2608 0.0728887 12.4453 2.48089C10.0373 3.13364 7.84204 4.40683 6.07813 6.17365C4.31423 7.94047 3.04323 10.1393 2.39171 12.5511C-0.274787 28.2391 -1.30917 52.144 2.46493 67.2045C3.11652 69.6162 4.38754 71.8149 6.15144 73.5817C7.91534 75.3484 10.1106 76.6215 12.5185 77.2742C21.3341 79.6822 56.8145 79.6822 56.8145 79.6822C56.8145 79.6822 92.2946 79.6822 101.11 77.2742C103.518 76.6216 105.713 75.3485 107.477 73.5817C109.241 71.815 110.512 69.6163 111.164 67.2045C113.976 51.4942 114.843 27.6044 111.091 12.4782V12.4778Z" fill="#FF0000"/>
<path d="M45.4489 56.9155L74.8824 39.8408L45.4493 22.7661L45.4489 56.9155Z" fill="white"/>
</g>
<defs>
<clipPath id="clip0">
<rect width="113.6" height="80" fill="white"/>
</clipPath>
</defs>
</svg>
